<svg width="512" height="512" viewBox="0 0 512 512" fill="none" xmlns="http://www.w3.org/2000/svg">
  <defs>
    <linearGradient id="bg" x1="64" y1="64" x2="448" y2="448" gradientUnits="userSpaceOnUse">
      <stop stop-color="#0EA5E9"/>
      <stop offset="1" stop-color="#4F46E5"/>
    </linearGradient>
    <linearGradient id="chip" x1="160" y1="160" x2="352" y2="352" gradientUnits="userSpaceOnUse">
      <stop stop-color="#FFFFFF" stop-opacity="0.95"/>
      <stop offset="1" stop-color="#E2E8F0" stop-opacity="0.95"/>
    </linearGradient>
  </defs>
  <rect x="64" y="64" width="384" height="384" rx="80" fill="url(#bg)"/>
  <rect x="160" y="160" width="192" height="192" rx="28" fill="url(#chip)"/>
  <rect x="224" y="224" width="64" height="64" rx="10" fill="#0F172A"/>
  <path d="M176 208H128M176 256H112M176 304H128M336 208H384M336 256H400M336 304H384M208 176V128M256 176V112M304 176V128M208 336V384M256 336V400M304 336V384" stroke="white" stroke-width="18" stroke-linecap="round"/>
</svg>
