<svg xmlns="http://www.w3.org/2000/svg" width="1536" height="1024" viewBox="0 0 1536 1024">
  <rect width="1536" height="1024" fill="#E5E7EB"/>
  <g transform="translate(768 430)">
    <rect x="-360" y="-250" width="720" height="500" rx="40" fill="#FFFFFF"/>
    <g transform="translate(0 -35) scale(13)">
      <path d="M10.617 11.473l4.686 3.695-3.102-7.662zM12 0C5.371 0 0 5.371 0 12s5.371 12 12 12 12-5.371 12-12S18.629 0 12 0zm5.797 17.305c-.011.471-.403.842-.875.83-.236 0-.416-.09-.664-.293l-6.19-5-2.079 5.203H6.191L11.438 5.44c.124-.314.427-.52.764-.506.326-.014.63.189.742.506l4.774 11.494c.045.111.08.234.08.348-.001.009-.001.009-.001.023z" fill="#EE0000" transform="translate(-12 -12)"/>
    </g>
    <text x="0" y="210" text-anchor="middle" font-family="Inter,Segoe UI,Arial,sans-serif" font-size="56" font-weight="700" fill="#0F172A">Ansible</text>
  </g>
</svg>
