<svg xmlns="http://www.w3.org/2000/svg" width="1536" height="1024" viewBox="0 0 1536 1024">
  <rect width="1536" height="1024" fill="#E5E7EB"/>
  <g transform="translate(768 430)">
    <rect x="-360" y="-250" width="720" height="500" rx="40" fill="#FFFFFF"/>
    <g transform="translate(0 -35) scale(13)">
      <path d="M18.78 12.653c-2.882 0-5.22 2.336-5.22 5.22s2.338 5.22 5.22 5.22 5.22-2.34 5.22-5.22-2.336-5.22-5.22-5.22zm-13.56 0c-2.88 0-5.22 2.337-5.22 5.22s2.338 5.22 5.22 5.22 5.22-2.338 5.22-5.22-2.336-5.22-5.22-5.22zm12-6.525c0 2.883-2.337 5.22-5.22 5.22-2.882 0-5.22-2.337-5.22-5.22 0-2.88 2.338-5.22 5.22-5.22 2.883 0 5.22 2.34 5.22 5.22z" fill="#F06A6A" transform="translate(-12 -12)"/>
    </g>
    <text x="0" y="210" text-anchor="middle" font-family="Inter,Segoe UI,Arial,sans-serif" font-size="56" font-weight="700" fill="#0F172A">Asana</text>
  </g>
</svg>
