<svg xmlns="http://www.w3.org/2000/svg" width="1536" height="1024" viewBox="0 0 1536 1024">
  <rect width="1536" height="1024" fill="#E5E7EB"/>
  <g transform="translate(768 430)">
    <rect x="-360" y="-250" width="720" height="500" rx="40" fill="#FFFFFF"/>
    <g transform="translate(0 -35) scale(13)">
      <path d="M2.88 0C1.29 0 0 1.29 0 2.88v18.24C0 22.71 1.29 24 2.88 24h18.24c1.59 0 2.88-1.29 2.88-2.88V2.88C24 1.29 22.71 0 21.12 0Zm5.04 5.76h8.254v2.146H7.92Zm0 5.033h7.85v2.146h-5.233v2.954h5.703v2.146H7.92Z" fill="#0089FF" transform="translate(-12 -12)"/>
    </g>
    <text x="0" y="210" text-anchor="middle" font-family="Inter,Segoe UI,Arial,sans-serif" font-size="56" font-weight="700" fill="#0F172A">ERP</text>
  </g>
</svg>
