<svg xmlns="http://www.w3.org/2000/svg" width="1536" height="1024" viewBox="0 0 1536 1024">
  <rect width="1536" height="1024" fill="#E5E7EB"/>
  <g transform="translate(768 430)">
    <rect x="-360" y="-250" width="720" height="500" rx="40" fill="#FFFFFF"/>
    <g transform="translate(0 -35) scale(13)">
      <path d="M11.571 11.513H0a5.218 5.218 0 0 0 5.232 5.215h2.13v2.057A5.215 5.215 0 0 0 12.575 24V12.518a1.005 1.005 0 0 0-1.005-1.005zm5.723-5.756H5.736a5.215 5.215 0 0 0 5.215 5.214h2.129v2.058a5.218 5.218 0 0 0 5.215 5.214V6.758a1.001 1.001 0 0 0-1.001-1.001zM23.013 0H11.455a5.215 5.215 0 0 0 5.215 5.215h2.129v2.057A5.215 5.215 0 0 0 24 12.483V1.005A1.001 1.001 0 0 0 23.013 0Z" fill="#0052CC" transform="translate(-12 -12)"/>
    </g>
    <text x="0" y="210" text-anchor="middle" font-family="Inter,Segoe UI,Arial,sans-serif" font-size="56" font-weight="700" fill="#0F172A">Jira</text>
  </g>
</svg>
